<?xml version="1.0" standalone="no"?>
<!DOCTYPE svg PUBLIC "-//W3C//DTD SVG 20010904//EN"
 "http://www.w3.org/TR/2001/REC-SVG-20010904/DTD/svg10.dtd">
<svg version="1.0" xmlns="http://www.w3.org/2000/svg"
 width="101.000000pt" height="101.000000pt" viewBox="0 0 101.000000 101.000000"
 preserveAspectRatio="xMidYMid meet">
<metadata>
Created by potrace 1.14, written by Peter Selinger 2001-2017
</metadata>
<g transform="translate(0.000000,101.000000) scale(0.100000,-0.100000)"
fill="#000000" stroke="none">
<path d="M159 998 c-1 -2 -2 -31 -3 -65 -2 -57 0 -63 19 -64 11 0 70 -1 132
-1 94 0 112 -3 115 -17 2 -9 3 -204 3 -434 l-1 -417 83 0 83 0 0 434 0 434
125 -1 c69 0 128 3 133 7 4 4 7 34 7 67 l1 59 -348 0 c-191 0 -348 -1 -349 -2z"/>
</g>
</svg>
